<svg display="none" xmlns="http://www.w3.org/2000/svg">
 <symbol id="mastodon-svg-logo-full" viewBox="0 0 548.4 175.9" id=".11447135990236723" xmlns="http://www.w3.org/2000/svg">
 <circle class="ast0" cx="87.9" cy="87.9" r="87.9" fill="#ffd93b"/>
 <path class="ast1" d="M175.9 87.9c0 48.6-39.4 87.9-87.9 87.9-27.6 0-52.3-12.8-68.5-32.7 15.1 12.2 34.3 19.5 55.2 19.5 48.6 0 87.9-39.4 87.9-87.9 0-20.9-7.3-40.1-19.5-55.2 20 16.1 32.8 40.8 32.8 68.4z" fill="#f4c534"/>
 <path class="ast2" d="M44.7 130c-.2 7.3 8 10.9 18.5 12.4 4.2.6 8.2.9 11.9.7 8.1-.5 17.4 1 25.9 4.4 3.8 1.6 8.1 2.5 12.4 2.1 11-1 18-12.3 17.8-19.4-.3-12.3-9.4-30.8-23-26-8.1 3.8-32.2 10.6-41.2 6.9-14-6.1-21.4 3.8-22.3 18.9z" fill="#3e4347"/>
 <path class="ast3" d="M66.9 111.1c-1.9-.8-3.6-1.3-5.3-1.6 0 .1.1.3.1.4 3.3 8.5 14.1 10.1 26.2 8.7 12-1.3 22.1-4.5 25.1-15.1-1.5-.1-3.2.2-4.9.8-8 3.7-32.2 10.5-41.2 6.8z" fill="#fff"/>
 <path class="ast4" d="M64.2 141.4c.5-5 4.3-8.9 9.5-11.5 2.8-1.4 6.5-1.6 9.6-.3 1.8.8 4 1.3 6.4 1.4h1.7c8.2-.7 16.5 3.4 19.5 11.6.7 1.8 1.1 3.6 1.3 5.6 0 .5 0 .9.1 1.4-4 .2-7.9-.7-11.4-2.1-8.4-3.4-17.7-5-25.9-4.4-3.4.2-7.1-.1-10.9-.6.1-.4.1-.7.1-1.1z" fill="#e24b4b"/>
 <ellipse class="ast1" cx="55.6" cy="71.2" rx="29.6" ry="27.5" fill="#f4c534"/>
 <path class="ast3" d="M80.8 71.2C80 83.8 68.1 93.9 54.2 93.9S29.7 83.8 30.5 71.2c.8-12.5 12.6-22.6 26.5-22.6s24.5 10.1 23.8 22.6z" fill="#fff"/>
 <ellipse class="ast2" cx="63.8" cy="71.4" rx="12.4" ry="13" fill="#3e4347"/>
 <path class="ast5" d="M71.3 66.4c-.6 1-2.3 1.1-3.7.1-1.4-.9-2.1-2.4-1.5-3.4.6-1 2.3-1.1 3.7-.1 1.5.9 2.2 2.4 1.5 3.4z" fill="#5a5f63"/>
 <ellipse class="ast1" cx="120.3" cy="64.9" rx="29.6" ry="27.5" fill="#f4c534"/>
 <path class="ast3" d="M145.4 64.9c-.8 12.5-12.6 22.7-26.5 22.7S94.4 77.4 95.1 64.9c.8-12.5 12.6-22.7 26.5-22.7s24.6 10.2 23.8 22.7z" fill="#fff"/>
 <ellipse class="ast2" cx="112.6" cy="62.7" rx="12.4" ry="13" fill="#3e4347"/>
 <path class="ast5" d="M120.1 57.8c-.6 1-2.3 1.1-3.7.1-1.4-.9-2.1-2.4-1.5-3.4.6-1 2.3-1.1 3.7-.1 1.5.8 2.1 2.4 1.5 3.4z" fill="#5a5f63"/>
 <path class="ast3" d="M223.1 98.2l6.8-31.1 18.8-1.4 7.1 32.9h.2l7.1-34 26.2 2.2-18.5 69.2-24.8 1.9-6.7-33.5h-.3l-6.8 31.6-24.6 2-18.7-71.3 26.9-2.2 7.1 33.6h.2z" fill="#fff"/>
 <path class="ast3" d="M322.4 138.6c-1.2 0-2.4.1-3.8.1-7.7 0-13.7-1.7-17.9-5.2-4.3-3.5-6.4-9.1-6.4-17V88l-6.6.1.7-20.8h5.6v-7.9l26-11.8v19.7l9.7-1.4-1.3 22.1h-8.2v21c0 2.4.3 4 1 4.8.7.8 2.2 1.2 4.6 1.2 1 0 1.9 0 2.5-.1.6-.1 1.2-.2 1.8-.4l-4.2 23.8c-1.2.1-2.4.2-3.5.3zM340.8 89h-8.3l3.8-20.6h4.4c0-4.3.6-8.2 1.7-11.8 1.1-3.5 2.8-6.5 5.1-8.9 2.3-2.4 5.2-4.3 8.7-5.7 3.5-1.4 7.7-2 12.6-2 1.4 0 2.6.1 3.7.3 1.1.2 2.2.4 3.4.5l3.1 19.9h-4c-2.6 0-4.7.7-6.1 2-1.4 1.4-2.1 3.2-2.1 5.6h10.3V89h-10.3l.7 47.5-26.9 2.2.2-49.7z" fill="#fff"/>
 <g>
 <path class="ast3" d="M373 135.6l.4-5 6.2.4-1.2 6.2-5.4-1.6zM387.6 126.5c1.1.2 2.3.3 3.5.3h1.7c.6 0 1.2-.1 1.7-.2s.9-.3 1.2-.5c.3-.2.5-.6.5-1.1 0-.6-.3-1-.9-1.3-.6-.3-1.4-.6-2.2-.9-.9-.3-1.9-.6-2.9-1-1.1-.4-2-.9-2.9-1.7-.9-.7-1.6-1.7-2.2-2.9-.6-1.2-.9-2.8-.9-4.8 0-1.3.3-2.6.8-3.8.5-1.3 1.3-2.4 2.5-3.4 1.1-1 2.6-1.8 4.4-2.5 1.8-.6 4-.9 6.5-.9 1 0 2 0 3 .1s1.9.2 2.8.3c.9.1 1.7.3 2.4.4.7.1 1.4.3 1.9.4v10.4c-1-.2-1.9-.4-2.9-.6-.9-.2-2-.2-3.1-.2h-1.1c-.5 0-1 .1-1.5.2s-1 .3-1.4.5c-.4.2-.6.6-.6.9 0 .6.3 1.1.9 1.4.6.3 1.4.6 2.3.9.9.3 1.9.6 3 1s2.1 1 3 1.7c.9.7 1.7 1.7 2.3 2.9.6 1.2.9 2.8.9 4.8 0 2.1-.5 3.9-1.4 5.3-.9 1.4-2.1 2.5-3.7 3.4-1.5.8-3.3 1.4-5.2 1.8-2 .4-4 .5-6.1.5-1.7 0-3.3-.1-4.9-.3-1.6-.2-3.2-.5-4.8-.9v-11c1.3.4 2.3.6 3.4.8z" fill="#fff"/>
 <path class="ast3" d="M446.6 117.1c.4 2.7.3 5.2-.4 7.6-.6 2.3-1.7 4.4-3.1 6.2s-3.2 3.3-5.4 4.4c-2.1 1.2-4.5 1.9-7.2 2.3-2.6.4-5.2.3-7.6-.2-2.4-.5-4.5-1.4-6.4-2.7-1.9-1.3-3.5-3-4.7-5.1-1.3-2.1-2.1-4.5-2.4-7.2-.4-2.7-.3-5.2.4-7.6.6-2.3 1.7-4.4 3.1-6.2 1.4-1.8 3.2-3.3 5.4-4.5 2.1-1.2 4.5-1.9 7.2-2.3 2.6-.4 5.1-.3 7.5.2s4.5 1.4 6.4 2.7c1.9 1.3 3.5 3 4.7 5.1 1.3 2.2 2.1 4.6 2.5 7.3zm-24.7 5c.7 1.5 1.7 2.5 3.2 3 1.5.5 3.1.3 5-.5 1.8-.8 3.1-1.9 3.7-3.2.7-1.4.7-2.8.1-4.3-.7-1.5-1.7-2.5-3.2-3s-3.1-.3-4.9.4c-1.8.8-3.1 1.9-3.8 3.2-.7 1.5-.8 3-.1 4.4z" fill="#fff"/>
 <path class="ast3" d="M475.1 135.4c-1.1.6-2.3 1-3.5 1.4-1.2.4-2.4.6-3.6.7-1.2.1-2.4.2-3.5.2-2.7 0-5.1-.5-7.4-1.4-2.3-.9-4.2-2.2-5.9-3.7-1.7-1.6-3-3.5-3.9-5.6-.9-2.1-1.4-4.5-1.4-6.9 0-2.9.5-5.5 1.5-7.8s2.4-4.2 4.1-5.8c1.8-1.6 3.8-2.8 6.2-3.7s5-1.3 7.8-1.3 5.2.5 7.3 1.4c2.1.9 3.8 1.8 5.2 2.8l-7.8 10.2c-.6-.4-1.2-.8-1.9-1.1-.7-.3-1.5-.5-2.2-.6s-1.5-.2-2.2-.1c-.7 0-1.2.2-1.7.4-.7.4-1.4.9-1.9 1.4s-.9 1.1-1.2 1.7c-.3.6-.4 1.3-.4 2s.2 1.5.6 2.2c.8 1.6 1.9 2.5 3.4 2.9 1.5.4 3 .1 4.6-.6l3-1.5 8 10.6c-1 .9-2.1 1.6-3.2 2.2zM479.7 89.1l13.5-.6-.7 10.4-12.9.9.1-10.7zm.1 14.9l13.2-1.1-.6 34-12.5 1.1v-34zM516 133.4h-.1c-1.1 1.5-2.4 2.5-4 3.1-1.6.6-3.4.9-5.3.9-1.6 0-3.1-.3-4.5-.9s-2.7-1.4-3.7-2.4c-1.1-1.1-1.9-2.3-2.5-3.8-.6-1.5-.9-3.2-.9-5 0-1.6.3-3.1.9-4.5.6-1.4 1.5-2.5 2.6-3.5s2.4-1.8 3.8-2.4c1.5-.6 3.1-.9 4.8-.9 1.8 0 3.3.3 4.6.8 1.2.5 2.3 1.1 3.2 1.8v-1.8c0-1.8-.6-3-1.8-3.6-1.2-.6-2.7-.9-4.6-.9-1.7 0-3.3.2-4.8.5l-4.5 1.2 2.3-9.4c1.9-.6 3.9-.9 5.9-1.2 2-.2 4.1-.3 6.3-.3 1.9 0 3.8.2 5.7.7s3.5 1.2 4.9 2.2c1.4 1 2.5 2.3 3.3 4 .8 1.6 1.2 3.6 1.2 6l-.6 22.3-11.9 1v-3.9zm-7.5-10.9c-1.3.2-2.4.7-3.3 1.4-.9.7-1.2 1.5-1.1 2.4.2.9.7 1.6 1.7 2 1 .5 2.2.6 3.7.3 1.5-.2 2.7-.7 3.4-1.5.7-.7 1-1.6.9-2.4-.1-.7-.6-1.4-1.5-1.9s-2.1-.6-3.8-.3zM533.1 90.5l13.3-1.1-.5 47.5-12.4 1.1-.4-47.5z" fill="#fff"/>
 </g>
 </symbol>
</svg>
