<svg display="none" xmlns="http://www.w3.org/2000/svg">
 <symbol id="mastodon-svg-logo" viewBox="0 0 216.4 232" id=".0048923961569047325" xmlns="http://www.w3.org/2000/svg">
 <circle class="ast0" cx="108.2" cy="116" r="108.2" fill="#f05555"/>
 <path class="ast1" d="M184.7 39.5l-.1-.1-153 153 .1.1c42.3 42.3 110.8 42.3 153 0s42.3-110.8 0-153z" fill="#e13741"/>
 <circle class="ast2" cx="108.2" cy="116" r="79.3" fill="#d7e6e6"/>
 <path class="ast3" d="M10.8 121.4c-3 0-5.4-2.4-5.4-5.4 0-56.8 46-102.8 102.8-102.8 3 0 5.4 2.4 5.4 5.4s-2.4 5.4-5.4 5.4c-50.7 0-92 41.3-92 92 0 3-2.4 5.4-5.4 5.4z" fill="#ff7373"/>
 <path class="ast4" d="M64.9 159.3c-4 0-7.2-3.2-7.2-7.2V79.9c0-4 3.2-7.2 7.2-7.2s7.2 3.2 7.2 7.2V152c0 4-3.2 7.3-7.2 7.3zM129.8 93.1c0-12-9.7-21.6-21.6-21.7-12 0-21.6 9.7-21.7 21.6 0 5.3 2 10.5 5.5 14.5-3.6 4-5.5 9.1-5.5 14.4v16.8c0 12 9.7 21.6 21.6 21.6s21.6-9.7 21.6-21.6V122c0-5.3-2-10.5-5.5-14.4 3.7-4 5.6-9.1 5.6-14.5zm-21.6-7.2c4 0 7.2 3.2 7.2 7.2s-3.2 7.2-7.2 7.2-7.2-3.2-7.2-7.2c0-3.9 3.2-7.2 7.2-7.2zm7.2 52.9c0 4-3.2 7.2-7.2 7.2s-7.2-3.2-7.2-7.2V122c0-4 3.2-7.2 7.2-7.2s7.2 3.2 7.2 7.2v16.8zM165.9 108.8h-3.6v-3.6c0-4-3.2-7.2-7.2-7.2s-7.2 3.2-7.2 7.2v3.6h-3.6c-4 0-7.2 3.2-7.2 7.2s3.2 7.2 7.2 7.2h3.6v3.6c0 4 3.2 7.2 7.2 7.2s7.2-3.2 7.2-7.2v-3.6h3.6c4 0 7.2-3.2 7.2-7.2s-3.2-7.2-7.2-7.2z" fill="#3c3c3c"/>
 </symbol>
</svg>
