<svg display="none" xmlns="http://www.w3.org/2000/svg">
 <symbol id="mastodon-svg-logo-full" viewBox="0 0 548.4 175.9" id=".7203641600698623" xmlns="http://www.w3.org/2000/svg">
 <circle class="ast0" cx="87.9" cy="87.9" r="87.9" fill="#f05555"/>
 <path class="ast1" d="M150.1 25.8l-.1-.1L25.7 150l.1.1c34.3 34.3 90 34.3 124.4 0s34.3-90-.1-124.3z" fill="#e13741"/>
 <circle class="ast2" cx="87.9" cy="87.9" r="64.5" fill="#d7e6e6"/>
 <path class="ast3" d="M8.8 92.3c-2.4 0-4.4-2-4.4-4.4C4.4 41.8 41.8 4.3 88 4.3c2.4 0 4.4 2 4.4 4.4s-2 4.4-4.4 4.4c-41.2 0-74.8 33.5-74.8 74.8 0 2.5-2 4.4-4.4 4.4z" fill="#ff7373"/>
 <path class="ast4" d="M52.8 123.1c-3.2 0-5.9-2.6-5.9-5.9V58.6c0-3.2 2.6-5.9 5.9-5.9 3.2 0 5.9 2.6 5.9 5.9v58.6c-.1 3.3-2.7 5.9-5.9 5.9zM105.5 69.4c0-9.7-7.9-17.6-17.6-17.6s-17.6 7.9-17.6 17.6c0 4.3 1.6 8.5 4.5 11.8-2.9 3.2-4.5 7.4-4.5 11.7v13.7c0 9.7 7.9 17.6 17.6 17.6s17.6-7.9 17.6-17.6V92.8c0-4.3-1.6-8.5-4.5-11.7 2.9-3.2 4.5-7.4 4.5-11.7zm-17.6-5.9c3.2 0 5.9 2.6 5.9 5.9 0 3.2-2.6 5.9-5.9 5.9-3.2 0-5.9-2.6-5.9-5.9.1-3.3 2.7-5.9 5.9-5.9zm5.9 43c0 3.2-2.6 5.9-5.9 5.9-3.2 0-5.9-2.6-5.9-5.9V92.8c0-3.2 2.6-5.9 5.9-5.9 3.2 0 5.9 2.6 5.9 5.9v13.7zM134.9 82.1H132v-2.9c0-3.2-2.6-5.9-5.9-5.9-3.2 0-5.9 2.6-5.9 5.9v2.9h-2.9c-3.2 0-5.9 2.6-5.9 5.9 0 3.2 2.6 5.9 5.9 5.9h2.9v2.9c0 3.2 2.6 5.9 5.9 5.9 3.2 0 5.9-2.6 5.9-5.9v-2.9h2.9c3.2 0 5.9-2.6 5.9-5.9-.1-3.3-2.7-5.9-5.9-5.9z" fill="#3c3c3c"/>
 <g>
 <path class="ast5" d="M193.6 97.5l7.4-33.9 20.5-1.5 7.7 35.9h.2l7.7-37.1 28.6 2.4-20.2 75.5-27.1 2.1-7.3-36.6h-.1l-7.4 34.5-26.8 2.2-20.4-77.8 29.4-2.4 7.7 36.7h.2z" fill="#fff"/>
 <path class="ast5" d="M302 141.6c-1.3 0-2.6.1-4.1.1-8.4 0-14.9-1.9-19.5-5.7-4.7-3.8-7-9.9-7-18.6v-31l-7.2.1.8-22.7h6.1v-8.6l28.4-12.9v21.5l10.6-1.5-1.4 24.1h-8.9v22.9c0 2.6.3 4.4 1.1 5.2.8.9 2.4 1.3 5 1.3 1.1 0 2.1 0 2.7-.1.7-.1 1.3-.2 2-.4l-4.6 26c-1.5.1-2.8.2-4 .3zM322.1 87.5H313l4.1-22.5h4.8c0-4.7.7-8.9 1.9-12.9 1.2-3.8 3.1-7.1 5.6-9.7 2.5-2.6 5.7-4.7 9.5-6.2s8.4-2.2 13.7-2.2c1.5 0 2.8.1 4 .3s2.4.4 3.7.5l3.4 21.7h-4.4c-2.8 0-5.1.8-6.7 2.2-1.5 1.5-2.3 3.5-2.3 6.1h11.2v22.6h-11.2l.8 51.8-29.4 2.4.4-54.1z" fill="#fff"/>
 </g>
 <g>
 <path class="ast5" d="M357.2 138.3l.4-5.5 6.8.4-1.3 6.8-5.9-1.7zM373.1 128.4c1.2.2 2.5.3 3.8.3h1.9c.7 0 1.3-.1 1.9-.2.5-.1 1-.3 1.3-.5.3-.2.5-.7.5-1.2 0-.7-.3-1.1-1-1.4-.7-.3-1.5-.7-2.4-1-1-.3-2.1-.7-3.2-1.1-1.2-.4-2.2-1-3.2-1.9-1-.8-1.7-1.9-2.4-3.2-.7-1.3-1-3.1-1-5.2 0-1.4.3-2.8.9-4.1.5-1.4 1.4-2.6 2.7-3.7 1.2-1.1 2.8-2 4.8-2.7 2-.7 4.4-1 7.1-1 1.1 0 2.2 0 3.3.1s2.1.2 3.1.3c1 .1 1.9.3 2.6.4s1.5.3 2.1.4V114c-1.1-.2-2.1-.4-3.2-.7-1-.2-2.2-.2-3.4-.2h-1.2c-.5 0-1.1.1-1.6.2s-1.1.3-1.5.5c-.4.2-.7.7-.7 1 0 .7.3 1.2 1 1.5.7.3 1.5.7 2.5 1 1 .3 2.1.7 3.3 1.1s2.3 1.1 3.3 1.9c1 .8 1.9 1.9 2.5 3.2.7 1.3 1 3.1 1 5.2 0 2.3-.5 4.3-1.5 5.8s-2.3 2.7-4 3.7c-1.6.9-3.6 1.5-5.7 2-2.2.4-4.4.5-6.7.5-1.9 0-3.6-.1-5.3-.3s-3.5-.5-5.2-1v-12c1.3.6 2.4.8 3.6 1z" fill="#fff"/>
 <path class="ast5" d="M437.5 118.1c.4 2.9.3 5.7-.4 8.3-.7 2.5-1.9 4.8-3.4 6.8s-3.5 3.6-5.9 4.8c-2.3 1.3-4.9 2.1-7.9 2.5-2.8.4-5.7.3-8.3-.2-2.6-.5-4.9-1.5-7-2.9-2.1-1.4-3.8-3.3-5.1-5.6-1.4-2.3-2.3-4.9-2.6-7.9-.4-2.9-.3-5.7.4-8.3.7-2.5 1.9-4.8 3.4-6.8s3.5-3.6 5.9-4.9c2.3-1.3 4.9-2.1 7.9-2.5 2.8-.4 5.6-.3 8.2.2 2.6.5 4.9 1.5 7 2.9 2.1 1.4 3.8 3.3 5.1 5.6 1.4 2.5 2.3 5.1 2.7 8zm-27 5.5c.8 1.6 1.9 2.7 3.5 3.3 1.6.5 3.4.3 5.5-.5 2-.9 3.4-2.1 4-3.5.8-1.5.8-3.1.1-4.7-.8-1.6-1.9-2.7-3.5-3.3-1.6-.5-3.4-.3-5.3.4-2 .9-3.4 2.1-4.1 3.5-.8 1.6-.9 3.3-.2 4.8z" fill="#fff"/>
 <path class="ast5" d="M468.6 138.1c-1.2.7-2.5 1.1-3.8 1.5-1.3.4-2.6.7-3.9.8-1.3.1-2.6.2-3.8.2-2.9 0-5.6-.5-8.1-1.5s-4.6-2.4-6.4-4c-1.9-1.7-3.3-3.8-4.3-6.1s-1.5-4.9-1.5-7.5c0-3.2.5-6 1.6-8.5s2.6-4.6 4.5-6.3c2-1.7 4.1-3.1 6.8-4 2.6-1 5.5-1.4 8.5-1.4s5.7.5 8 1.5 4.1 2 5.7 3.1l-8.5 11.1c-.7-.4-1.3-.9-2.1-1.2-.8-.3-1.6-.5-2.4-.7-.8-.1-1.6-.2-2.4-.1-.8 0-1.3.2-1.9.4-.8.4-1.5 1-2.1 1.5s-1 1.2-1.3 1.9c-.3.7-.4 1.4-.4 2.2s.2 1.6.7 2.4c.9 1.7 2.1 2.7 3.7 3.2 1.6.4 3.3.1 5-.7l3.3-1.6 8.7 11.6c-1.2.8-2.4 1.5-3.6 2.2zM473.6 87.6l14.7-.7-.8 11.3-14.1 1 .2-11.6zm.1 16.2l14.4-1.2-.7 37.1-13.6 1.2v-37.1h-.1zM513.2 135.9h-.1c-1.2 1.6-2.6 2.7-4.4 3.4-1.7.7-3.7 1-5.8 1-1.7 0-3.4-.3-4.9-1-1.5-.7-2.9-1.5-4-2.6-1.2-1.2-2.1-2.5-2.7-4.1-.7-1.6-1-3.5-1-5.5 0-1.7.3-3.4 1-4.9.7-1.5 1.6-2.7 2.8-3.8s2.6-2 4.1-2.6c1.6-.7 3.4-1 5.2-1 2 0 3.6.3 5 .9 1.3.5 2.5 1.2 3.5 2v-2c0-2-.7-3.3-2-3.9-1.3-.7-2.9-1-5-1-1.9 0-3.6.2-5.2.5-1.6.4-3.3.9-4.9 1.3l2.5-10.3c2.1-.7 4.3-1 6.4-1.3 2.2-.2 4.5-.3 6.9-.3 2.1 0 4.1.2 6.2.8 2.1.5 3.8 1.3 5.3 2.4 1.5 1.1 2.7 2.5 3.6 4.4.9 1.7 1.3 3.9 1.3 6.5l-.7 24.3-13 1.1v-4.3h-.1zM505 124c-1.4.2-2.6.8-3.6 1.5-1 .8-1.3 1.6-1.2 2.6.2 1 .8 1.7 1.9 2.2 1.1.5 2.4.7 4 .3 1.6-.2 2.9-.8 3.7-1.6.8-.8 1.1-1.7 1-2.6-.1-.8-.7-1.5-1.6-2.1-1-.5-2.3-.6-4.2-.3zM531.9 89.1l14.5-1.2-.5 51.8-13.5 1.2-.5-51.8z" fill="#fff"/>
 </g>
 </symbol>
</svg>
