<?xml version="1.0" encoding="utf-8"?>
<!-- Generator: Adobe Illustrator 23.1.0, SVG Export Plug-In . SVG Version: 6.00 Build 0)  -->
<svg version="1.1" id="Laag_1" xmlns="http://www.w3.org/2000/svg" xmlns:xlink="http://www.w3.org/1999/xlink" x="0px" y="0px"
	 viewBox="0 0 216.4 232" style="enable-background:new 0 0 216.4 232;" xml:space="preserve">
<style type="text/css">
	.st0{fill:#FFD93B;}
	.st1{fill:#F4C534;}
	.st2{fill:#3E4347;}
	.st3{fill:#FFFFFF;}
	.st4{fill:#E24B4B;}
	.st5{fill:#5A5F63;}
</style>
<circle class="st0" cx="107.9" cy="116.1" r="108.2"/>
<path class="st1" d="M216.1,116.1c0,59.8-48.5,108.2-108.2,108.2c-34,0-64.4-15.7-84.2-40.3c18.6,15,42.2,24,67.9,24
	c59.8,0,108.2-48.4,108.2-108.2c0-25.7-9-49.4-24-67.9C200.3,51.7,216.1,82.1,216.1,116.1z"/>
<path class="st2" d="M54.6,167.8c-0.2,9,9.9,13.4,22.8,15.2c5.2,0.7,10.1,1.2,14.6,0.8c10-0.6,21.4,1.2,31.8,5.4
	c4.7,1.9,9.9,3,15.3,2.5c13.6-1.2,22.2-15.1,21.9-23.8c-0.3-15.1-11.6-37.9-28.3-32c-9.9,4.7-39.7,13.1-50.7,8.5
	C64.9,137,55.7,149.2,54.6,167.8z"/>
<path class="st3" d="M82,144.6c-2.3-1-4.5-1.7-6.5-2c0,0.1,0.1,0.3,0.1,0.5c4,10.5,17.3,12.4,32.3,10.7c14.7-1.6,27.2-5.6,30.9-18.6
	c-1.9-0.1-3.9,0.2-6,0.9C122.8,140.8,93.1,149.1,82,144.6z"/>
<path class="st4" d="M78.7,181.8c0.7-6.2,5.3-10.9,11.7-14.1c3.4-1.7,8-2,11.8-0.4c2.2,1,4.9,1.6,7.9,1.7c0.7,0,1.4,0,2.1,0
	c10.1-0.8,20.3,4.2,24,14.3c0.8,2.2,1.3,4.5,1.6,6.9c0.1,0.6,0.1,1.1,0.1,1.7c-4.9,0.3-9.7-0.8-14-2.6c-10.4-4.2-21.8-6.1-31.8-5.4
	c-4.2,0.3-8.7-0.1-13.5-0.7C78.6,182.7,78.6,182.3,78.7,181.8z"/>
<ellipse class="st1" cx="68.1" cy="95.5" rx="36.4" ry="33.8"/>
<path class="st3" d="M99,95.5c-0.9,15.4-15.6,27.9-32.6,27.9s-30.2-12.5-29.2-27.9c0.9-15.4,15.6-27.9,32.6-27.9S100,80.1,99,95.5z"
	/>
<ellipse class="st2" cx="78.1" cy="95.7" rx="15.3" ry="16"/>
<path class="st5" d="M87.4,89.6c-0.8,1.3-2.8,1.3-4.6,0.2c-1.7-1.1-2.6-3-1.8-4.2c0.7-1.2,2.8-1.3,4.5-0.2
	C87.4,86.5,88.2,88.4,87.4,89.6z"/>
<ellipse class="st1" cx="147.6" cy="87.7" rx="36.4" ry="33.8"/>
<path class="st3" d="M178.5,87.7c-0.9,15.4-15.6,27.9-32.6,27.9s-30.2-12.5-29.2-27.9c0.9-15.4,15.6-27.9,32.6-27.9
	C166.4,59.8,179.5,72.3,178.5,87.7z"/>
<ellipse class="st2" cx="138.1" cy="85" rx="15.3" ry="16"/>
<path class="st5" d="M147.4,78.9c-0.8,1.3-2.8,1.3-4.6,0.2c-1.7-1.1-2.6-3-1.8-4.2c0.7-1.2,2.8-1.3,4.5-0.2
	C147.4,75.8,148.2,77.7,147.4,78.9z"/>
</svg>
